<svg xmlns="http://www.w3.org/2000/svg" xmlns:xlink="http://www.w3.org/1999/xlink" version="1.0" x="0px" y="0px" viewBox="0 0 100 125" enable-background="new 0 0 100 100" xml:space="preserve"><path fill="#000000" d="M93.0477448,8.3263397c-1.5687332-2.1903191-6.2380829-3.6367784-8.735672-3.8786302  c-3.297554-0.3192682-6.103302,0.4699507-7.9968567,3.018446c-0.8043747,0.0137529-1.5572815,0.4570479-2.2431335,0.98031  C73.849884,8.5124292,73.6555481,8.6661119,73.538269,8.873107c-0.310463,0.2604551-0.6053772,0.5187607-0.8790894,0.7374077  c-2.8813629,2.3015919-5.7626801,4.6031351-8.6439972,6.9046774c-0.2365494,0.18894-0.3057175,0.4178886-0.2701569,0.6336346  c-0.3001175,0.0528126-0.5990295,0.0967216-0.902195,0.1742878c-0.6497879,0.1662865-0.7087517,0.8616352-0.4050369,1.2818756  c-5.5863953,4.1753426-11.1246796,8.4037476-16.3193932,13.0670948  c-5.5336838,4.9676628-10.2023315,10.7557526-15.2454109,16.1961174c-2.71208,2.925724-5.6213531,5.6390572-8.8217373,8.0246162  c-1.9907761,1.4838676-4.767271,2.7005768-6.1465158,4.8789444c-0.1391802,0.2198486-0.2628059,0.4475441-0.3784809,0.6784439  c-0.7282562,0.5557709-1.4565115,1.1115875-2.1847677,1.6673584c-0.3453236,0.2635574-0.4024363,0.66399-0.293663,0.9958611  L4.6415763,80.8052979c-0.3012147,0.5981293,0.1265268,1.2431717,0.758862,1.2174149  c0.0238051,0.0127029,0.0351577,0.031601,0.0616636,0.0429077c12.3839502,5.2782822,26.8267403,7.9459457,39.4703484,1.9487152  c2.3073921-1.0944824,4.1909447-2.911972,5.4365616-5.1141968c1.910408-3.3775711-1.4520607-6.9487305,3.701992-8.8779984  c6.0744514-2.2738342,13.032589,2.3033447,19.4349632,0.5233612c0.4246902-0.1180725,0.698143-0.5786209,0.5722656-1.0079651  c-0.7541046-2.5727997-1.6831055-5.0381775-2.7794876-7.4683952c1.4193497-0.248703,2.8431015-0.2229996,4.2717133,0.109623  c1.0332184,0.1804886,1.4753113-1.3986015,0.4356384-1.5801888c-2.1103973-0.368679-3.9888-0.3476753-6.0882492,0.0829163  c-0.5562744,0.1140747-0.7010498,0.7571144-0.4896545,1.2036591c1.1226349,2.3715096,2.0422363,4.7769203,2.8132019,7.2698555  c-5.7872925,1.1960068-11.4788094-1.7640305-17.3297119-0.9981613c-3.3887749,0.4435959-6.3582077,2.7345352-5.8444977,6.303894  c1.380394,9.5910568-13.5948105,11.2928162-20.2944946,11.368782c-7.0337543,0.0797729-14.0474062-1.7894821-20.5648994-4.3902359  c2.6319132-0.5677185,5.2680769-1.1126862,7.9146433-1.6125412c0.3565273-0.0673676,0.7209549-0.1278839,1.0909328-0.1840439  c0.3040657,0.1605835,0.6303349,0.0834656,0.8655357-0.1209717c2.2933903-0.3046722,4.7513676-0.4961624,6.992197-1.0066223  c0.2605553,0.2396011,0.6767941,0.3266754,0.9769592,0.1191788c0.334671-0.2313004,0.6726437-0.4596481,1.0080147-0.6903  c0.0661144-0.0240555,0.1372299-0.0412598,0.2025948-0.0662613c0.1984921-0.0758667,0.3971844-0.2275467,0.510458-0.4220428  c10.6116199-7.2754517,21.5327091-14.2798042,31.7035351-22.1435852  c5.4601707-4.2217064,10.1177635-9.5305901,14.9354439-14.4438438c1.270874-1.2960739,2.5586014-2.6116562,3.6199265-4.0259094  c0.3300171,0.3936348,1.0121689,0.5086594,1.3411407-0.0701141c0.9799576-1.7242203,2.0582352-3.3570709,3.2158813-4.919754  c0.452301,0.5026093,1.477272,0.3487244,1.4241562-0.4947567c-0.0244064-0.3879318-0.0800171-0.7748661-0.1397247-1.1613483  c1.45401-1.7915325,3.0430984-3.4664917,4.7516098-5.0441799c0.148735-0.0726643,0.2700119-0.1797371,0.3443298-0.3239193  c0.7412033-0.671093,1.4997711-1.328083,2.2903366-1.9596176c0.1470337-0.1174259,0.2509537-0.2577057,0.3321228-0.4095879  c1.6671066-1.0869827,3.0816116-1.9707222,3.538353-4.6709003C95.627243,14.8260307,94.7895203,10.7582598,93.0477448,8.3263397z   M26.2172928,54.6711082c4.1541386-3.4757957,7.6946487-7.6699905,11.2699623-11.7164574  c8.074379-9.1385078,17.2761955-16.5981522,27.0299339-23.8705597c0.164238-0.1224766,0.2629547-0.2760582,0.3121185-0.4385433  c2.5185394-0.2350998,4.8085251,0.5892258,6.69133,2.3916626C54.3482132,36.8113861,36.6833839,52.0347443,18.5475521,66.690979  c-0.3510246-0.2180939-0.762064-0.027359-0.9804096,0.3135681C11.8979788,64.1861954,23.9570103,56.5623131,26.2172928,54.6711082z   M6.8448477,80.0671921l3.8538742-7.6523895c1.6355505,2.025383,3.3485174,3.9820557,5.1401501,5.869957  C12.4006367,78.9426041,8.9209423,79.6393967,6.8448477,80.0671921z M17.7578335,77.9213791  c-2.2000713-2.2666779-4.2847672-4.63414-6.2550888-7.1031189l3.0129442-5.9826813  c0.109024-0.2164917,0.1098738-0.4242859,0.0535622-0.6087799c0.0698147-0.0532608,0.1395292-0.1064682,0.2093439-0.159729  c-0.1634846,2.071991,0.7251053,4.037262,3.0951633,4.8397369c0.1349792,0.0457077,0.2541542,0.0463028,0.3653774,0.0297012  c1.2991276,1.9303131,2.9231758,4.8092346,4.6200886,5.7123718c0.2824116,0.1503372,0.540966,0.2273483,0.7907696,0.2748108  c0.3177681,0.5943756,0.5782242,1.2023544,0.7940693,1.8334427C22.8835297,76.9836807,20.4163513,77.4228745,17.7578335,77.9213791z   M24.205513,72.9664688c-0.1004715-0.0388565-0.2019939-0.0570602-0.3070164-0.0531616  c-0.4306412-0.1304245-0.8552818-0.5209045-1.4178524-1.2446594c-0.964407-1.2406693-1.9287624-2.4813843-2.8931694-3.7220459  c18.2507553-14.74506,36.0250587-30.0639381,53.3003578-45.9407349c1.720314,2.2795868,3.4405365,4.5591755,5.1608505,6.8387642  c-4.3149185,2.8802147-7.8929367,6.5488014-11.4543991,10.3152084c-4.7756729,5.0504799-9.9721336,9.3642502-15.4765625,13.5960083  c-5.4305611,4.174942-10.8611221,8.3499374-16.2916374,12.5248833c-2.9241753,2.2480774-5.8483009,4.496109-8.7724266,6.7441864  C25.2479858,72.6442566,24.7020187,72.9694748,24.205513,72.9664688z M67.6195068,45.450985  c-3.9004898,3.9778519-7.8585854,7.7231522-12.3812523,10.9963531c-9.1953201,6.6549225-18.659893,12.9663277-28.0156956,19.3995018  c-0.1976929-0.076767-0.4248924-0.070015-0.6525402,0.0769653c-0.063364,0.0409088-0.1267776,0.0818176-0.1901398,0.1227264  c-0.1302795,0.0841141-0.2311497,0.2232971-0.3060665,0.3750763c-0.2040443-0.6403809-0.4538975-1.2434158-0.7523613-1.8417892  c0.5035076-0.2939148,1.0011139-0.7107544,1.5592842-1.1398926c6.6837788-5.1384048,13.3675098-10.2768517,20.0512905-15.4152527  c5.4381638-4.1808434,11.0254593-8.2280579,16.0724411-12.8847542c5.3617439-4.9471092,9.7461357-10.7654572,15.8384895-14.8651333  C78.9687805,36.176548,71.3144455,41.682827,67.6195068,45.450985z M80.2722092,32.2160034  c0.2145004-1.0227203,0.2632065-2.1083031,0.0759201-3.2805538c-0.0638123-0.3993855-0.3356705-0.5770741-0.6369858-0.5900764  l-5.9421768-7.8740845c-0.2158966-0.2861118-0.5253601-0.3743305-0.813324-0.3368225  c-1.939209-2.0125809-4.3518295-3.0737076-6.9725418-3.1557751c0.385231-0.3425732,0.8482819-0.7621632,1.3586426-1.2204113  c0.0704117,0.2190971,0.2350998,0.4028358,0.54422,0.4586487c6.1172562,1.1050854,12.8317947,7.0546093,14.2277908,13.4386253  C81.4712143,30.4871826,80.8590851,31.3430653,80.2722092,32.2160034z M84.2481613,27.1302128  c-0.2976608,0.3192692-0.5840759,0.6483402-0.8687363,0.9789104c-2.019928-6.4473801-8.4850616-12.1681538-14.8332748-13.4203224  c1.705368-1.4949198,3.7207947-3.1503735,5.4973297-4.1896963c1.575882,2.325798,4.301918,4.0941257,6.3603592,5.895112  c2.6081085,2.2818871,5.4854736,4.4907608,6.802803,7.7804146C86.1791763,25.1175823,85.1984177,26.1109962,84.2481613,27.1302128z   M88.8414917,22.4853687c-0.1564331,0.1076241-0.3043594,0.216547-0.4437943,0.3271198  c-1.0518723-2.1581116-2.6507645-3.8547249-4.4848099-5.5163288c-2.5119324-2.2758379-6.381813-4.6068869-8.3905411-7.5215607  c0.1801834-0.0685139,0.3639755-0.1444302,0.5328598-0.1894903c0.2799606,0.1373796,0.6139297,0.126977,0.8639908-0.1087732  c0.2658997,0.008502,0.5151062,0.0487108,0.7234039,0.164485c3.4183273,1.9004068,6.7319412,4.4774084,9.5154343,7.2085428  C88.7449722,18.4063969,90.0098419,20.6086674,88.8414917,22.4853687z M93.3656158,18.4190502  c-0.1619873,0.9576035-0.8886948,1.6905613-1.7817841,2.3297482c-0.7053528-2.2247772-3.3841248-5.1731577-4.1147308-5.8900108  c-1.6207504-1.5902405-3.5772171-2.9130735-5.4139099-4.2371073c-1.0716782-0.7725153-2.4637222-2.0290842-3.9046326-2.7009277  c3.9692993-3.7297978,12.9311142-1.5232759,14.6921921,3.5901184  C93.5694046,13.6208725,93.7350388,16.2350311,93.3656158,18.4190502z"/><text x="0" y="115" fill="#000000" font-size="5px" font-weight="bold" font-family="'Helvetica Neue', Helvetica, Arial-Unicode, Arial, Sans-serif">Created by Alexander Skowalsky</text><text x="0" y="120" fill="#000000" font-size="5px" font-weight="bold" font-family="'Helvetica Neue', Helvetica, Arial-Unicode, Arial, Sans-serif">from the Noun Project</text></svg>